# xmcd
#
# Track frame offsets:
#	150
#	28915
#	60288
#	76989
#
# Disc length: 1221 seconds
#
# Revision: 0
# Processed by: cddbd v1.4PL0 Copyright (c) Steve Scherf et al.
# Submitted via: EasyCDDAExtractor 4.6.9.1
#
DISCID=2604c304
DTITLE=Hazell Dean - Who's Leavin' Who 2001
DYEAR=1900
DGENRE=
TTITLE0=Who's Leavin' Who 2001(Wayne G's Heaven Mix)
TTITLE1=Who's Leavin' Who 2001(D-Bop Mix)
TTITLE2=Rumour Has It(Who's Leavin' Who 2001 CD Single Version)
TTITLE3=It's All Over(Who's Leavin' Who 2001 CD Single Version)
EXTD=
EXTT0=
EXTT1=
EXTT2=
EXTT3=
PLAYORDER=
